REM DIRINDEX 1\2\6,1\2\7,1\2\8,1\2\9,1\3\10,1\3\11,1\4\12,1\4\13,1\4\14,1\5\15,1\5\16,1\5\17
REM DIRNAME cjc020,folder01,folder02,folder03,folder04,folder05,folder06,folder07,folder08,folder09,folder10,folder11,folder12,folder13,folder14,folder15,folder16
TITLE ""
FILE "1900_2_sec07_0631_0647.mp3" MP3
  TRACK 01 AUDIO
    TITLE "0:"
    INDEX 01 00:00:00
  TRACK 02 AUDIO
    TITLE "13:cjc020_3373"
    INDEX 01 00:00:17
  TRACK 03 AUDIO
    TITLE "0:"
    INDEX 01 00:01:09
  TRACK 04 AUDIO
    TITLE "14:cjc020_3374"
    INDEX 01 00:01:15
  TRACK 05 AUDIO
    TITLE "0:"
    INDEX 01 00:02:49
  TRACK 06 AUDIO
    TITLE "13:cjc020_3375"
    INDEX 01 00:03:29
  TRACK 07 AUDIO
    TITLE "0:"
    INDEX 01 00:04:44
  TRACK 08 AUDIO
    TITLE "14:cjc020_3376"
    INDEX 01 00:04:46
  TRACK 09 AUDIO
    TITLE "0:"
    INDEX 01 00:06:26
  TRACK 10 AUDIO
    TITLE "13:cjc020_3377"
    INDEX 01 00:07:05
  TRACK 11 AUDIO
    TITLE "0:"
    INDEX 01 00:08:09
  TRACK 12 AUDIO
    TITLE "14:cjc020_3378"
    INDEX 01 00:08:11
  TRACK 13 AUDIO
    TITLE "0:"
    INDEX 01 00:11:35
  TRACK 14 AUDIO
    TITLE "13:cjc020_3379"
    INDEX 01 00:12:14
  TRACK 15 AUDIO
    TITLE "0:"
    INDEX 01 00:13:49
  TRACK 16 AUDIO
    TITLE "14:cjc020_3380"
    INDEX 01 00:13:51
  TRACK 17 AUDIO
    TITLE "0:"
    INDEX 01 00:16:04
  TRACK 18 AUDIO
    TITLE "13:cjc020_3381"
    INDEX 01 00:16:59
  TRACK 19 AUDIO
    TITLE "0:"
    INDEX 01 00:18:01
  TRACK 20 AUDIO
    TITLE "14:cjc020_3382"
    INDEX 01 00:18:05
  TRACK 21 AUDIO
    TITLE "0:"
    INDEX 01 00:20:57
  TRACK 22 AUDIO
    TITLE "13:cjc020_3383"
    INDEX 01 00:21:35
  TRACK 23 AUDIO
    TITLE "0:"
    INDEX 01 00:22:42
  TRACK 24 AUDIO
    TITLE "14:cjc020_3384"
    INDEX 01 00:22:46
  TRACK 25 AUDIO
    TITLE "0:"
    INDEX 01 00:23:57
  TRACK 26 AUDIO
    TITLE "13:cjc020_3385"
    INDEX 01 00:24:35
  TRACK 27 AUDIO
    TITLE "0:"
    INDEX 01 00:25:45
  TRACK 28 AUDIO
    TITLE "14:cjc020_3386"
    INDEX 01 00:25:46
  TRACK 29 AUDIO
    TITLE "0:"
    INDEX 01 00:29:01
  TRACK 30 AUDIO
    TITLE "13:cjc020_3387"
    INDEX 01 00:29:56
  TRACK 31 AUDIO
    TITLE "0:"
    INDEX 01 00:31:00
  TRACK 32 AUDIO
    TITLE "14:cjc020_3388"
    INDEX 01 00:31:02
  TRACK 33 AUDIO
    TITLE "0:"
    INDEX 01 00:34:51
  TRACK 34 AUDIO
    TITLE "13:cjc020_3389"
    INDEX 01 00:35:29
  TRACK 35 AUDIO
    TITLE "0:"
    INDEX 01 00:36:40
  TRACK 36 AUDIO
    TITLE "14:cjc020_3390"
    INDEX 01 00:36:46
  TRACK 37 AUDIO
    TITLE "0:"
    INDEX 01 00:37:65
  TRACK 38 AUDIO
    TITLE "13:cjc020_3391"
    INDEX 01 00:38:45
  TRACK 39 AUDIO
    TITLE "0:"
    INDEX 01 00:39:56
  TRACK 40 AUDIO
    TITLE "14:cjc020_3392"
    INDEX 01 00:39:58
  TRACK 41 AUDIO
    TITLE "0:"
    INDEX 01 00:43:27
  TRACK 42 AUDIO
    TITLE "12:cjc020_3393"
    INDEX 01 00:45:02
  TRACK 43 AUDIO
    TITLE "0:"
    INDEX 01 00:46:25
  TRACK 44 AUDIO
    TITLE "13:cjc020_3394"
    INDEX 01 00:47:27
  TRACK 45 AUDIO
    TITLE "0:"
    INDEX 01 00:48:42
  TRACK 46 AUDIO
    TITLE "14:cjc020_3395"
    INDEX 01 00:48:44
  TRACK 47 AUDIO
    TITLE "0:"
    INDEX 01 00:51:71
  TRACK 48 AUDIO
    TITLE "13:cjc020_3396"
    INDEX 01 00:52:49
  TRACK 49 AUDIO
    TITLE "0:"
    INDEX 01 00:53:53
  TRACK 50 AUDIO
    TITLE "14:cjc020_3397"
    INDEX 01 00:53:58
  TRACK 51 AUDIO
    TITLE "0:"
    INDEX 01 00:54:62
  TRACK 52 AUDIO
    TITLE "13:cjc020_3398"
    INDEX 01 00:55:42
  TRACK 53 AUDIO
    TITLE "0:"
    INDEX 01 00:56:45
  TRACK 54 AUDIO
    TITLE "14:cjc020_3399"
    INDEX 01 00:56:51
  TRACK 55 AUDIO
    TITLE "0:"
    INDEX 01 01:00:00
  TRACK 56 AUDIO
    TITLE "13:cjc020_3400"
    INDEX 01 01:00:55
  TRACK 57 AUDIO
    TITLE "0:"
    INDEX 01 01:01:60
  TRACK 58 AUDIO
    TITLE "14:cjc020_3401"
    INDEX 01 01:01:64
  TRACK 59 AUDIO
    TITLE "0:"
    INDEX 01 01:06:49
  TRACK 60 AUDIO
    TITLE "13:cjc020_3402"
    INDEX 01 01:07:27
  TRACK 61 AUDIO
    TITLE "0:"
    INDEX 01 01:08:46
  TRACK 62 AUDIO
    TITLE "14:cjc020_3403"
    INDEX 01 01:08:48
  TRACK 63 AUDIO
    TITLE "0:"
    INDEX 01 01:10:37
  TRACK 64 AUDIO
    TITLE "13:cjc020_3404"
    INDEX 01 01:11:17
  TRACK 65 AUDIO
    TITLE "0:"
    INDEX 01 01:12:13
  TRACK 66 AUDIO
    TITLE "14:cjc020_3405"
    INDEX 01 01:12:15
  TRACK 67 AUDIO
    TITLE "0:"
    INDEX 01 01:15:21
  TRACK 68 AUDIO
    TITLE "13:cjc020_3406"
    INDEX 01 01:16:01
  TRACK 69 AUDIO
    TITLE "0:"
    INDEX 01 01:17:12
  TRACK 70 AUDIO
    TITLE "14:cjc020_3407"
    INDEX 01 01:17:18
  TRACK 71 AUDIO
    TITLE "0:"
    INDEX 01 01:18:29
